<?xml version="1.0" encoding="utf-8" standalone="no"?>
<!DOCTYPE svg PUBLIC "-//W3C//DTD SVG 1.1//EN"
  "http://www.w3.org/Graphics/SVG/1.1/DTD/svg11.dtd">
<svg xmlns:xlink="http://www.w3.org/1999/xlink" width="231.84pt" height="231.84pt" viewBox="0 0 231.84 231.84" xmlns="http://www.w3.org/2000/svg" version="1.1">
 <metadata>
  <rdf:RDF xmlns:dc="http://purl.org/dc/elements/1.1/" xmlns:cc="http://creativecommons.org/ns#" xmlns:rdf="http://www.w3.org/1999/02/22-rdf-syntax-ns#">
   <cc:Work>
    <dc:type rdf:resource="http://purl.org/dc/dcmitype/StillImage"/>
    <dc:date>2026-03-15T19:17:10.098931</dc:date>
    <dc:format>image/svg+xml</dc:format>
    <dc:creator>
     <cc:Agent>
      <dc:title>Matplotlib v3.5.3, https://matplotlib.org/</dc:title>
     </cc:Agent>
    </dc:creator>
   </cc:Work>
  </rdf:RDF>
 </metadata>
 <defs>
  <style type="text/css">*{stroke-linejoin: round; stroke-linecap: butt}</style>
 </defs>
 <g id="figure_1">
  <g id="patch_1">
   <path d="M 0 231.84 
L 231.84 231.84 
L 231.84 0 
L 0 0 
L 0 231.84 
z
" style="fill: none"/>
  </g>
  <g id="axes_1">
   <g id="patch_2">
    <path d="M 115.92 28.944 
C 96.843124 28.944 78.28602 35.220338 63.125588 46.799998 
C 47.965156 58.379657 37.027525 74.631634 32.00835 93.036391 
C 26.989175 111.441148 28.161963 130.995766 35.344898 148.668702 
C 42.527832 166.341637 55.329498 181.169849 71.765258 190.854527 
L 115.92 115.92 
L 115.92 28.944 
z
" style="fill: #9999ee"/>
   </g>
   <g id="patch_3">
    <path d="M 71.765258 190.854527 
C 82.445489 197.147792 94.348774 201.085599 106.675017 202.403263 
C 119.00126 203.720928 131.467955 202.38825 143.237135 198.494807 
L 115.92 115.92 
L 71.765258 190.854527 
z
" style="fill: #ffbb00"/>
   </g>
   <g id="patch_4">
    <path d="M 143.237135 198.494807 
C 162.855776 192.00463 179.533503 178.73051 190.260124 161.068317 
C 200.986744 143.406124 205.075588 122.486511 201.788653 102.085298 
C 198.501718 81.684085 188.049418 63.107263 172.318308 49.7078 
C 156.587198 36.308336 136.584312 28.944002 115.920008 28.944 
L 115.92 115.92 
L 143.237135 198.494807 
z
" style="fill: #66ddee"/>
   </g>
   <g id="matplotlib.axis_1"/>
   <g id="matplotlib.axis_2"/>
  </g>
 </g>
</svg>
