<?xml version="1.0" encoding="utf-8" standalone="no"?>
<!DOCTYPE svg PUBLIC "-//W3C//DTD SVG 1.1//EN"
  "http://www.w3.org/Graphics/SVG/1.1/DTD/svg11.dtd">
<svg xmlns:xlink="http://www.w3.org/1999/xlink" width="340.56pt" height="340.56pt" viewBox="0 0 340.56 340.56" xmlns="http://www.w3.org/2000/svg" version="1.1">
 <metadata>
  <rdf:RDF xmlns:dc="http://purl.org/dc/elements/1.1/" xmlns:cc="http://creativecommons.org/ns#" xmlns:rdf="http://www.w3.org/1999/02/22-rdf-syntax-ns#">
   <cc:Work>
    <dc:type rdf:resource="http://purl.org/dc/dcmitype/StillImage"/>
    <dc:date>2026-03-02T13:40:44.965316</dc:date>
    <dc:format>image/svg+xml</dc:format>
    <dc:creator>
     <cc:Agent>
      <dc:title>Matplotlib v3.5.3, https://matplotlib.org/</dc:title>
     </cc:Agent>
    </dc:creator>
   </cc:Work>
  </rdf:RDF>
 </metadata>
 <defs>
  <style type="text/css">*{stroke-linejoin: round; stroke-linecap: butt}</style>
 </defs>
 <g id="figure_1">
  <g id="patch_1">
   <path d="M 0 340.56 
L 340.56 340.56 
L 340.56 0 
L 0 0 
L 0 340.56 
z
" style="fill: none"/>
  </g>
  <g id="axes_1">
   <g id="patch_2">
    <path d="M 333.36 170.28 
C 333.36 148.864531 329.141619 127.6573 320.946274 107.871986 
C 312.750929 88.086672 300.737997 70.10805 285.594974 54.965026 
C 270.45195 39.822003 252.473328 27.809071 232.688014 19.613726 
C 212.9027 11.418381 191.695469 7.2 170.28 7.2 
C 148.864531 7.2 127.6573 11.418381 107.871986 19.613726 
C 88.086672 27.809071 70.10805 39.822003 54.965026 54.965026 
C 39.822003 70.10805 27.809071 88.086672 19.613726 107.871986 
C 11.418381 127.6573 7.2 148.864531 7.2 170.28 
C 7.2 191.695469 11.418381 212.9027 19.613726 232.688014 
C 27.809071 252.473328 39.822003 270.45195 54.965026 285.594974 
C 70.10805 300.737997 88.086672 312.750929 107.871986 320.946274 
C 127.6573 329.141619 148.864531 333.36 170.28 333.36 
C 191.695469 333.36 212.9027 329.141619 232.688014 320.946274 
C 252.473328 312.750929 270.45195 300.737997 285.594974 285.594974 
C 300.737997 270.45195 312.750929 252.473328 320.946274 232.688014 
C 329.141619 212.9027 333.36 191.695469 333.36 170.28 
M 170.28 170.28 
C 170.28 170.28 170.28 170.28 170.28 170.28 
C 170.28 170.28 170.28 170.28 170.28 170.28 
C 170.28 170.28 170.28 170.28 170.28 170.28 
C 170.28 170.28 170.28 170.28 170.28 170.28 
C 170.28 170.28 170.28 170.28 170.28 170.28 
C 170.28 170.28 170.28 170.28 170.28 170.28 
C 170.28 170.28 170.28 170.28 170.28 170.28 
C 170.28 170.28 170.28 170.28 170.28 170.28 
C 170.28 170.28 170.28 170.28 170.28 170.28 
C 170.28 170.28 170.28 170.28 170.28 170.28 
C 170.28 170.28 170.28 170.28 170.28 170.28 
C 170.28 170.28 170.28 170.28 170.28 170.28 
C 170.28 170.28 170.28 170.28 170.28 170.28 
C 170.28 170.28 170.28 170.28 170.28 170.28 
C 170.28 170.28 170.28 170.28 170.28 170.28 
C 170.28 170.28 170.28 170.28 170.28 170.28 
M 333.36 170.28 
z
" style="fill: #ffffff"/>
   </g>
   <g id="patch_3">
    <path d="M 170.28 170.28 
C 170.28 170.28 170.28 170.28 170.28 170.28 
C 170.28 170.28 170.28 170.28 170.28 170.28 
L 172.181438 155.837143 
C 171.551025 155.754147 170.915853 155.712516 170.28 155.712516 
C 169.644147 155.712516 169.008975 155.754147 168.378562 155.837143 
z
" clip-path="url(#pc3dddab164)" style="fill: #fafdcb"/>
   </g>
   <g id="patch_4">
    <path d="M 170.28 170.28 
C 170.28 170.28 170.28 170.28 170.28 170.28 
C 170.28 170.28 170.28 170.28 170.28 170.28 
L 170.979717 168.590735 
C 170.905982 168.560193 170.830327 168.534511 170.753237 168.513855 
C 170.676147 168.493199 170.597787 168.477612 170.51866 168.467195 
z
" clip-path="url(#pc3dddab164)" style="fill: #feffe2"/>
   </g>
   <g id="patch_5">
    <path d="M 170.28 170.28 
C 170.28 170.28 170.28 170.28 170.28 170.28 
C 170.28 170.28 170.28 170.28 170.28 170.28 
L 170.28 170.28 
C 170.28 170.28 170.28 170.28 170.28 170.28 
C 170.28 170.28 170.28 170.28 170.28 170.28 
z
" clip-path="url(#pc3dddab164)" style="fill: #ffffe5"/>
   </g>
   <g id="patch_6">
    <path d="M 170.28 170.28 
C 170.28 170.28 170.28 170.28 170.28 170.28 
C 170.28 170.28 170.28 170.28 170.28 170.28 
L 170.28 170.28 
C 170.28 170.28 170.28 170.28 170.28 170.28 
C 170.28 170.28 170.28 170.28 170.28 170.28 
z
" clip-path="url(#pc3dddab164)" style="fill: #ffffe5"/>
   </g>
   <g id="patch_7">
    <path d="M 170.28 170.28 
C 170.28 170.28 170.28 170.28 170.28 170.28 
C 170.28 170.28 170.28 170.28 170.28 170.28 
L 170.28 170.28 
C 170.28 170.28 170.28 170.28 170.28 170.28 
C 170.28 170.28 170.28 170.28 170.28 170.28 
z
" clip-path="url(#pc3dddab164)" style="fill: #ffffe5"/>
   </g>
   <g id="patch_8">
    <path d="M 170.28 170.28 
C 170.28 170.28 170.28 170.28 170.28 170.28 
C 170.28 170.28 170.28 170.28 170.28 170.28 
L 170.28 170.28 
C 170.28 170.28 170.28 170.28 170.28 170.28 
C 170.28 170.28 170.28 170.28 170.28 170.28 
z
" clip-path="url(#pc3dddab164)" style="fill: #ffffe5"/>
   </g>
   <g id="patch_9">
    <path d="M 170.28 170.28 
C 170.28 170.28 170.28 170.28 170.28 170.28 
C 170.28 170.28 170.28 170.28 170.28 170.28 
L 203.120885 174.603585 
C 203.309604 173.170119 203.404268 171.725835 203.404268 170.28 
C 203.404268 168.834165 203.309604 167.389881 203.120885 165.956415 
z
" clip-path="url(#pc3dddab164)" style="fill: #ebf7b0"/>
   </g>
   <g id="patch_10">
    <path d="M 170.28 170.28 
C 170.28 170.28 170.28 170.28 170.28 170.28 
C 170.28 170.28 170.28 170.28 170.28 170.28 
L 286.821389 218.553024 
C 288.928449 213.466132 290.700194 208.246737 292.125255 202.928338 
C 293.550316 197.609938 294.625636 192.203937 295.344315 186.745029 
z
" clip-path="url(#pc3dddab164)" style="fill: #359c53"/>
   </g>
   <g id="patch_11">
    <path d="M 170.28 170.28 
C 170.28 170.28 170.28 170.28 170.28 170.28 
C 170.28 170.28 170.28 170.28 170.28 170.28 
L 193.342153 187.976212 
C 194.114571 186.969577 194.820254 185.913448 195.454672 184.814604 
C 196.08909 183.71576 196.650883 182.576556 197.136446 181.404304 
z
" clip-path="url(#pc3dddab164)" style="fill: #f0f9b4"/>
   </g>
   <g id="patch_12">
    <path d="M 170.28 170.28 
C 170.28 170.28 170.28 170.28 170.28 170.28 
C 170.28 170.28 170.28 170.28 170.28 170.28 
L 201.39861 210.834562 
C 203.168768 209.476272 204.848097 208.00354 206.425818 206.425818 
C 208.00354 204.848097 209.476272 203.168768 210.834562 201.39861 
z
" clip-path="url(#pc3dddab164)" style="fill: #d2eda0"/>
   </g>
   <g id="patch_13">
    <path d="M 170.28 170.28 
C 170.28 170.28 170.28 170.28 170.28 170.28 
C 170.28 170.28 170.28 170.28 170.28 170.28 
L 190.198457 218.36741 
C 192.297415 217.497993 194.337199 216.492083 196.304719 215.356135 
C 198.272238 214.220187 200.163274 212.956637 201.96569 211.573595 
z
" clip-path="url(#pc3dddab164)" style="fill: #cfec9e"/>
   </g>
   <g id="patch_14">
    <path d="M 170.28 170.28 
C 170.28 170.28 170.28 170.28 170.28 170.28 
C 170.28 170.28 170.28 170.28 170.28 170.28 
L 177.658125 226.322422 
C 180.104309 226.000375 182.526786 225.518515 184.910008 224.879932 
C 187.293229 224.24135 189.632086 223.447415 191.911567 222.503223 
z
" clip-path="url(#pc3dddab164)" style="fill: #c7e89a"/>
   </g>
   <g id="patch_15">
    <path d="M 170.28 170.28 
C 170.28 170.28 170.28 170.28 170.28 170.28 
C 170.28 170.28 170.28 170.28 170.28 170.28 
L 160.746152 242.696763 
C 163.907057 243.112904 167.09182 243.321644 170.28 243.321644 
C 173.46818 243.321644 176.652943 243.112904 179.813848 242.696763 
z
" clip-path="url(#pc3dddab164)" style="fill: #a6da8b"/>
   </g>
   <g id="patch_16">
    <path d="M 170.28 170.28 
C 170.28 170.28 170.28 170.28 170.28 170.28 
C 170.28 170.28 170.28 170.28 170.28 170.28 
L 140.97396 241.03104 
C 144.062158 242.310214 147.230797 243.385822 150.459541 244.250961 
C 153.688285 245.1161 156.970211 245.768916 160.284255 246.205218 
z
" clip-path="url(#pc3dddab164)" style="fill: #9fd788"/>
   </g>
   <g id="patch_17">
    <path d="M 170.28 170.28 
C 170.28 170.28 170.28 170.28 170.28 170.28 
C 170.28 170.28 170.28 170.28 170.28 170.28 
L 110.123435 248.677561 
C 113.545395 251.303323 117.135603 253.702224 120.871018 255.858867 
C 124.606433 258.015509 128.479046 259.925271 132.464003 261.575894 
z
" clip-path="url(#pc3dddab164)" style="fill: #6bc072"/>
   </g>
   <g id="patch_18">
    <path d="M 170.28 170.28 
C 170.28 170.28 170.28 170.28 170.28 170.28 
C 170.28 170.28 170.28 170.28 170.28 170.28 
L 47.060893 264.829347 
C 51.187858 270.207713 55.662539 275.310108 60.456215 280.103785 
C 65.249892 284.897461 70.352287 289.372142 75.730653 293.499107 
z
" clip-path="url(#pc3dddab164)" style="fill: #0c723b"/>
   </g>
   <g id="patch_19">
    <path d="M 170.28 170.28 
C 170.28 170.28 170.28 170.28 170.28 170.28 
C 170.28 170.28 170.28 170.28 170.28 170.28 
L 66.782791 213.149947 
C 68.654013 217.667477 70.819006 222.057648 73.263875 226.292286 
C 75.708745 230.526923 78.428248 234.596948 81.404932 238.476238 
z
" clip-path="url(#pc3dddab164)" style="fill: #4cb063"/>
   </g>
   <g id="patch_20">
    <path d="M 170.28 170.28 
C 170.28 170.28 170.28 170.28 170.28 170.28 
C 170.28 170.28 170.28 170.28 170.28 170.28 
L 75.596088 182.745373 
C 76.140187 186.878213 76.954292 190.970998 78.03318 194.997461 
C 79.112067 199.023924 80.453424 202.975433 82.04864 206.826626 
z
" clip-path="url(#pc3dddab164)" style="fill: #74c477"/>
   </g>
   <g id="patch_21">
    <path d="M 170.28 170.28 
C 170.28 170.28 170.28 170.28 170.28 170.28 
C 170.28 170.28 170.28 170.28 170.28 170.28 
L 106.96557 161.944497 
C 106.601736 164.708096 106.419233 167.492554 106.419233 170.28 
C 106.419233 173.067446 106.601736 175.851904 106.96557 178.615503 
z
" clip-path="url(#pc3dddab164)" style="fill: #b9e294"/>
   </g>
   <g id="patch_22">
    <path d="M 170.28 170.28 
C 170.28 170.28 170.28 170.28 170.28 170.28 
C 170.28 170.28 170.28 170.28 170.28 170.28 
L 103.824792 142.753351 
C 102.623286 145.654042 101.612987 148.630289 100.800376 151.662991 
C 99.987766 154.695693 99.374588 157.778349 98.964777 160.891173 
z
" clip-path="url(#pc3dddab164)" style="fill: #a9db8c"/>
   </g>
   <g id="patch_23">
    <path d="M 170.28 170.28 
C 170.28 170.28 170.28 170.28 170.28 170.28 
C 170.28 170.28 170.28 170.28 170.28 170.28 
L 111.617518 125.266694 
C 109.652741 127.827241 107.857717 130.513684 106.243968 133.30878 
C 104.630218 136.103876 103.201203 139.001633 101.966092 141.983453 
z
" clip-path="url(#pc3dddab164)" style="fill: #a4d98a"/>
   </g>
   <g id="patch_24">
    <path d="M 170.28 170.28 
C 170.28 170.28 170.28 170.28 170.28 170.28 
C 170.28 170.28 170.28 170.28 170.28 170.28 
L 129.938721 117.706221 
C 127.643938 119.46707 125.466904 121.376277 123.421591 123.421591 
C 121.376277 125.466904 119.46707 127.643938 117.706221 129.938721 
z
" clip-path="url(#pc3dddab164)" style="fill: #b5e092"/>
   </g>
   <g id="patch_25">
    <path d="M 170.28 170.28 
C 170.28 170.28 170.28 170.28 170.28 170.28 
C 170.28 170.28 170.28 170.28 170.28 170.28 
L 157.030516 138.292917 
C 155.634319 138.871241 154.277482 139.540359 152.968715 140.295976 
C 151.659949 141.051592 150.402058 141.892088 149.203115 142.812069 
z
" clip-path="url(#pc3dddab164)" style="fill: #e9f6af"/>
   </g>
   <g id="patch_26">
    <path d="M 170.28 170.28 
C 170.28 170.28 170.28 170.28 170.28 170.28 
C 170.28 170.28 170.28 170.28 170.28 170.28 
L 166.740757 143.396778 
C 165.567336 143.551262 164.405288 143.782408 163.262071 144.088732 
C 162.118853 144.395056 160.996917 144.775902 159.903464 145.228825 
z
" clip-path="url(#pc3dddab164)" style="fill: #f2fab5"/>
   </g>
   <g id="matplotlib.axis_1">
    <g id="xtick_1">
     <g id="line2d_1">
      <path d="M 170.28 170.28 
L 170.28 7.2 
" clip-path="url(#pc3dddab164)" style="fill: none; stroke: #808080; stroke-opacity: 0.2; stroke-linecap: square"/>
     </g>
     <g id="text_1">
      <!-- 12 AM -->
      <g transform="translate(154.594062 26.959375)scale(0.1 -0.1)">
       <defs>
        <path id="DejaVuSans-31" d="M 794 531 
L 1825 531 
L 1825 4091 
L 703 3866 
L 703 4441 
L 1819 4666 
L 2450 4666 
L 2450 531 
L 3481 531 
L 3481 0 
L 794 0 
L 794 531 
z
" transform="scale(0.015625)"/>
        <path id="DejaVuSans-32" d="M 1228 531 
L 3431 531 
L 3431 0 
L 469 0 
L 469 531 
Q 828 903 1448 1529 
Q 2069 2156 2228 2338 
Q 2531 2678 2651 2914 
Q 2772 3150 2772 3378 
Q 2772 3750 2511 3984 
Q 2250 4219 1831 4219 
Q 1534 4219 1204 4116 
Q 875 4013 500 3803 
L 500 4441 
Q 881 4594 1212 4672 
Q 1544 4750 1819 4750 
Q 2544 4750 2975 4387 
Q 3406 4025 3406 3419 
Q 3406 3131 3298 2873 
Q 3191 2616 2906 2266 
Q 2828 2175 2409 1742 
Q 1991 1309 1228 531 
z
" transform="scale(0.015625)"/>
        <path id="DejaVuSans-20" transform="scale(0.015625)"/>
        <path id="DejaVuSans-41" d="M 2188 4044 
L 1331 1722 
L 3047 1722 
L 2188 4044 
z
M 1831 4666 
L 2547 4666 
L 4325 0 
L 3669 0 
L 3244 1197 
L 1141 1197 
L 716 0 
L 50 0 
L 1831 4666 
z
" transform="scale(0.015625)"/>
        <path id="DejaVuSans-4d" d="M 628 4666 
L 1569 4666 
L 2759 1491 
L 3956 4666 
L 4897 4666 
L 4897 0 
L 4281 0 
L 4281 4097 
L 3078 897 
L 2444 897 
L 1241 4097 
L 1241 0 
L 628 0 
L 628 4666 
z
" transform="scale(0.015625)"/>
       </defs>
       <use xlink:href="#DejaVuSans-31"/>
       <use xlink:href="#DejaVuSans-32" x="63.623047"/>
       <use xlink:href="#DejaVuSans-20" x="127.246094"/>
       <use xlink:href="#DejaVuSans-41" x="159.033203"/>
       <use xlink:href="#DejaVuSans-4d" x="227.441406"/>
      </g>
     </g>
    </g>
    <g id="xtick_2">
     <g id="line2d_2">
      <path d="M 170.28 170.28 
L 333.36 170.28 
" clip-path="url(#pc3dddab164)" style="fill: none; stroke: #808080; stroke-opacity: 0.2; stroke-linecap: square"/>
     </g>
     <g id="text_2">
      <!-- 6 AM -->
      <g transform="translate(303.855313 173.039375)scale(0.1 -0.1)">
       <defs>
        <path id="DejaVuSans-36" d="M 2113 2584 
Q 1688 2584 1439 2293 
Q 1191 2003 1191 1497 
Q 1191 994 1439 701 
Q 1688 409 2113 409 
Q 2538 409 2786 701 
Q 3034 994 3034 1497 
Q 3034 2003 2786 2293 
Q 2538 2584 2113 2584 
z
M 3366 4563 
L 3366 3988 
Q 3128 4100 2886 4159 
Q 2644 4219 2406 4219 
Q 1781 4219 1451 3797 
Q 1122 3375 1075 2522 
Q 1259 2794 1537 2939 
Q 1816 3084 2150 3084 
Q 2853 3084 3261 2657 
Q 3669 2231 3669 1497 
Q 3669 778 3244 343 
Q 2819 -91 2113 -91 
Q 1303 -91 875 529 
Q 447 1150 447 2328 
Q 447 3434 972 4092 
Q 1497 4750 2381 4750 
Q 2619 4750 2861 4703 
Q 3103 4656 3366 4563 
z
" transform="scale(0.015625)"/>
       </defs>
       <use xlink:href="#DejaVuSans-36"/>
       <use xlink:href="#DejaVuSans-20" x="63.623047"/>
       <use xlink:href="#DejaVuSans-41" x="95.410156"/>
       <use xlink:href="#DejaVuSans-4d" x="163.818359"/>
      </g>
     </g>
    </g>
    <g id="xtick_3">
     <g id="line2d_3">
      <path d="M 170.28 170.28 
L 170.28 333.36 
" clip-path="url(#pc3dddab164)" style="fill: none; stroke: #808080; stroke-opacity: 0.2; stroke-linecap: square"/>
     </g>
     <g id="text_3">
      <!-- 12 PM -->
      <g transform="translate(154.999531 319.119375)scale(0.1 -0.1)">
       <defs>
        <path id="DejaVuSans-50" d="M 1259 4147 
L 1259 2394 
L 2053 2394 
Q 2494 2394 2734 2622 
Q 2975 2850 2975 3272 
Q 2975 3691 2734 3919 
Q 2494 4147 2053 4147 
L 1259 4147 
z
M 628 4666 
L 2053 4666 
Q 2838 4666 3239 4311 
Q 3641 3956 3641 3272 
Q 3641 2581 3239 2228 
Q 2838 1875 2053 1875 
L 1259 1875 
L 1259 0 
L 628 0 
L 628 4666 
z
" transform="scale(0.015625)"/>
       </defs>
       <use xlink:href="#DejaVuSans-31"/>
       <use xlink:href="#DejaVuSans-32" x="63.623047"/>
       <use xlink:href="#DejaVuSans-20" x="127.246094"/>
       <use xlink:href="#DejaVuSans-50" x="159.033203"/>
       <use xlink:href="#DejaVuSans-4d" x="219.335938"/>
      </g>
     </g>
    </g>
    <g id="xtick_4">
     <g id="line2d_4">
      <path d="M 170.28 170.28 
L 7.2 170.28 
" clip-path="url(#pc3dddab164)" style="fill: none; stroke: #808080; stroke-opacity: 0.2; stroke-linecap: square"/>
     </g>
     <g id="text_4">
      <!-- 6 PM -->
      <g transform="translate(12.100781 173.039375)scale(0.1 -0.1)">
       <use xlink:href="#DejaVuSans-36"/>
       <use xlink:href="#DejaVuSans-20" x="63.623047"/>
       <use xlink:href="#DejaVuSans-50" x="95.410156"/>
       <use xlink:href="#DejaVuSans-4d" x="155.712891"/>
      </g>
     </g>
    </g>
   </g>
   <g id="matplotlib.axis_2">
    <g id="ytick_1">
     <g id="line2d_5">
      <path d="M 170.28 151.58383 
C 172.735159 151.58383 175.166444 152.067443 177.434714 153.006991 
C 179.702985 153.94654 181.764129 155.323752 183.500189 157.059811 
C 185.236248 158.795871 186.61346 160.857015 187.553009 163.125286 
C 188.492557 165.393556 188.97617 167.824841 188.97617 170.28 
C 188.97617 172.735159 188.492557 175.166444 187.553009 177.434714 
C 186.61346 179.702985 185.236248 181.764129 183.500189 183.500189 
C 181.764129 185.236248 179.702985 186.61346 177.434714 187.553009 
C 175.166444 188.492557 172.735159 188.97617 170.28 188.97617 
C 167.824841 188.97617 165.393556 188.492557 163.125286 187.553009 
C 160.857015 186.61346 158.795871 185.236248 157.059811 183.500189 
C 155.323752 181.764129 153.94654 179.702985 153.006991 177.434714 
C 152.067443 175.166444 151.58383 172.735159 151.58383 170.28 
C 151.58383 167.824841 152.067443 165.393556 153.006991 163.125286 
C 153.94654 160.857015 155.323752 158.795871 157.059811 157.059811 
C 158.795871 155.323752 160.857015 153.94654 163.125286 153.006991 
C 165.393556 152.067443 167.824841 151.58383 170.28 151.58383 
" clip-path="url(#pc3dddab164)" style="fill: none; stroke: #808080; stroke-opacity: 0.2; stroke-linecap: square"/>
     </g>
    </g>
    <g id="ytick_2">
     <g id="line2d_6">
      <path d="M 170.28 132.88766 
C 175.190317 132.88766 180.052888 133.854885 184.589429 135.733982 
C 189.12597 137.613079 193.248259 140.367504 196.720377 143.839623 
C 200.192496 147.311741 202.946921 151.43403 204.826018 155.970571 
C 206.705115 160.507112 207.67234 165.369683 207.67234 170.28 
C 207.67234 175.190317 206.705115 180.052888 204.826018 184.589429 
C 202.946921 189.12597 200.192496 193.248259 196.720377 196.720377 
C 193.248259 200.192496 189.12597 202.946921 184.589429 204.826018 
C 180.052888 206.705115 175.190317 207.67234 170.28 207.67234 
C 165.369683 207.67234 160.507112 206.705115 155.970571 204.826018 
C 151.43403 202.946921 147.311741 200.192496 143.839623 196.720377 
C 140.367504 193.248259 137.613079 189.12597 135.733982 184.589429 
C 133.854885 180.052888 132.88766 175.190317 132.88766 170.28 
C 132.88766 165.369683 133.854885 160.507112 135.733982 155.970571 
C 137.613079 151.43403 140.367504 147.311741 143.839623 143.839623 
C 147.311741 140.367504 151.43403 137.613079 155.970571 135.733982 
C 160.507112 133.854885 165.369683 132.88766 170.28 132.88766 
" clip-path="url(#pc3dddab164)" style="fill: none; stroke: #808080; stroke-opacity: 0.2; stroke-linecap: square"/>
     </g>
    </g>
    <g id="ytick_3">
     <g id="line2d_7">
      <path d="M 170.28 114.19149 
C 177.645476 114.19149 184.939331 115.642328 191.744143 118.460974 
C 198.548956 121.279619 204.732388 125.411257 209.940566 130.619434 
C 215.148743 135.827612 219.280381 142.011044 222.099026 148.815857 
C 224.917672 155.620669 226.36851 162.914524 226.36851 170.28 
C 226.36851 177.645476 224.917672 184.939331 222.099026 191.744143 
C 219.280381 198.548956 215.148743 204.732388 209.940566 209.940566 
C 204.732388 215.148743 198.548956 219.280381 191.744143 222.099026 
C 184.939331 224.917672 177.645476 226.36851 170.28 226.36851 
C 162.914524 226.36851 155.620669 224.917672 148.815857 222.099026 
C 142.011044 219.280381 135.827612 215.148743 130.619434 209.940566 
C 125.411257 204.732388 121.279619 198.548956 118.460974 191.744143 
C 115.642328 184.939331 114.19149 177.645476 114.19149 170.28 
C 114.19149 162.914524 115.642328 155.620669 118.460974 148.815857 
C 121.279619 142.011044 125.411257 135.827612 130.619434 130.619434 
C 135.827612 125.411257 142.011044 121.279619 148.815857 118.460974 
C 155.620669 115.642328 162.914524 114.19149 170.28 114.19149 
" clip-path="url(#pc3dddab164)" style="fill: none; stroke: #808080; stroke-opacity: 0.2; stroke-linecap: square"/>
     </g>
    </g>
    <g id="ytick_4">
     <g id="line2d_8">
      <path d="M 170.28 95.49532 
C 180.100634 95.49532 189.825775 97.429771 198.898858 101.187965 
C 207.971941 104.946159 216.216517 110.455009 223.160754 117.399246 
C 230.104991 124.343483 235.613841 132.588059 239.372035 141.661142 
C 243.130229 150.734225 245.06468 160.459366 245.06468 170.28 
C 245.06468 180.100634 243.130229 189.825775 239.372035 198.898858 
C 235.613841 207.971941 230.104991 216.216517 223.160754 223.160754 
C 216.216517 230.104991 207.971941 235.613841 198.898858 239.372035 
C 189.825775 243.130229 180.100634 245.06468 170.28 245.06468 
C 160.459366 245.06468 150.734225 243.130229 141.661142 239.372035 
C 132.588059 235.613841 124.343483 230.104991 117.399246 223.160754 
C 110.455009 216.216517 104.946159 207.971941 101.187965 198.898858 
C 97.429771 189.825775 95.49532 180.100634 95.49532 170.28 
C 95.49532 160.459366 97.429771 150.734225 101.187965 141.661142 
C 104.946159 132.588059 110.455009 124.343483 117.399246 117.399246 
C 124.343483 110.455009 132.588059 104.946159 141.661142 101.187965 
C 150.734225 97.429771 160.459366 95.49532 170.28 95.49532 
" clip-path="url(#pc3dddab164)" style="fill: none; stroke: #808080; stroke-opacity: 0.2; stroke-linecap: square"/>
     </g>
    </g>
    <g id="ytick_5">
     <g id="line2d_9">
      <path d="M 170.28 76.79915 
C 182.555793 76.79915 194.712219 79.217214 206.053572 83.914956 
C 217.394926 88.612699 227.700647 95.498761 236.380943 104.179057 
C 245.061239 112.859353 251.947301 123.165074 256.645044 134.506428 
C 261.342786 145.847781 263.76085 158.004207 263.76085 170.28 
C 263.76085 182.555793 261.342786 194.712219 256.645044 206.053572 
C 251.947301 217.394926 245.061239 227.700647 236.380943 236.380943 
C 227.700647 245.061239 217.394926 251.947301 206.053572 256.645044 
C 194.712219 261.342786 182.555793 263.76085 170.28 263.76085 
C 158.004207 263.76085 145.847781 261.342786 134.506428 256.645044 
C 123.165074 251.947301 112.859353 245.061239 104.179057 236.380943 
C 95.498761 227.700647 88.612699 217.394926 83.914956 206.053572 
C 79.217214 194.712219 76.79915 182.555793 76.79915 170.28 
C 76.79915 158.004207 79.217214 145.847781 83.914956 134.506428 
C 88.612699 123.165074 95.498761 112.859353 104.179057 104.179057 
C 112.859353 95.498761 123.165074 88.612699 134.506428 83.914956 
C 145.847781 79.217214 158.004207 76.79915 170.28 76.79915 
" clip-path="url(#pc3dddab164)" style="fill: none; stroke: #808080; stroke-opacity: 0.2; stroke-linecap: square"/>
     </g>
    </g>
    <g id="ytick_6">
     <g id="line2d_10">
      <path d="M 170.28 58.10298 
C 185.010951 58.10298 199.598663 61.004656 213.208287 66.641947 
C 226.817911 72.279238 239.184776 80.542513 249.601131 90.958869 
C 260.017487 101.375224 268.280762 113.742089 273.918053 127.351713 
C 279.555344 140.961337 282.45702 155.549049 282.45702 170.28 
C 282.45702 185.010951 279.555344 199.598663 273.918053 213.208287 
C 268.280762 226.817911 260.017487 239.184776 249.601131 249.601131 
C 239.184776 260.017487 226.817911 268.280762 213.208287 273.918053 
C 199.598663 279.555344 185.010951 282.45702 170.28 282.45702 
C 155.549049 282.45702 140.961337 279.555344 127.351713 273.918053 
C 113.742089 268.280762 101.375224 260.017487 90.958869 249.601131 
C 80.542513 239.184776 72.279238 226.817911 66.641947 213.208287 
C 61.004656 199.598663 58.10298 185.010951 58.10298 170.28 
C 58.10298 155.549049 61.004656 140.961337 66.641947 127.351713 
C 72.279238 113.742089 80.542513 101.375224 90.958869 90.958869 
C 101.375224 80.542513 113.742089 72.279238 127.351713 66.641947 
C 140.961337 61.004656 155.549049 58.10298 170.28 58.10298 
" clip-path="url(#pc3dddab164)" style="fill: none; stroke: #808080; stroke-opacity: 0.2; stroke-linecap: square"/>
     </g>
    </g>
    <g id="ytick_7">
     <g id="line2d_11">
      <path d="M 170.28 39.40681 
C 187.46611 39.40681 204.485106 42.792099 220.363001 49.368939 
C 236.240897 55.945778 250.668905 65.586265 262.82132 77.73868 
C 274.973735 89.891095 284.614222 104.319103 291.191061 120.196999 
C 297.767901 136.074894 301.15319 153.09389 301.15319 170.28 
C 301.15319 187.46611 297.767901 204.485106 291.191061 220.363001 
C 284.614222 236.240897 274.973735 250.668905 262.82132 262.82132 
C 250.668905 274.973735 236.240897 284.614222 220.363001 291.191061 
C 204.485106 297.767901 187.46611 301.15319 170.28 301.15319 
C 153.09389 301.15319 136.074894 297.767901 120.196999 291.191061 
C 104.319103 284.614222 89.891095 274.973735 77.73868 262.82132 
C 65.586265 250.668905 55.945778 236.240897 49.368939 220.363001 
C 42.792099 204.485106 39.40681 187.46611 39.40681 170.28 
C 39.40681 153.09389 42.792099 136.074894 49.368939 120.196999 
C 55.945778 104.319103 65.586265 89.891095 77.73868 77.73868 
C 89.891095 65.586265 104.319103 55.945778 120.196999 49.368939 
C 136.074894 42.792099 153.09389 39.40681 170.28 39.40681 
" clip-path="url(#pc3dddab164)" style="fill: none; stroke: #808080; stroke-opacity: 0.2; stroke-linecap: square"/>
     </g>
    </g>
    <g id="ytick_8">
     <g id="line2d_12">
      <path d="M 170.28 20.71064 
C 189.921268 20.71064 209.37155 24.579542 227.517716 32.09593 
C 245.663882 39.612318 262.153034 50.630018 276.041508 64.518492 
C 289.929982 78.406966 300.947682 94.896118 308.46407 113.042284 
C 315.980458 131.18845 319.84936 150.638732 319.84936 170.28 
C 319.84936 189.921268 315.980458 209.37155 308.46407 227.517716 
C 300.947682 245.663882 289.929982 262.153034 276.041508 276.041508 
C 262.153034 289.929982 245.663882 300.947682 227.517716 308.46407 
C 209.37155 315.980458 189.921268 319.84936 170.28 319.84936 
C 150.638732 319.84936 131.18845 315.980458 113.042284 308.46407 
C 94.896118 300.947682 78.406966 289.929982 64.518492 276.041508 
C 50.630018 262.153034 39.612318 245.663882 32.09593 227.517716 
C 24.579542 209.37155 20.71064 189.921268 20.71064 170.28 
C 20.71064 150.638732 24.579542 131.18845 32.09593 113.042284 
C 39.612318 94.896118 50.630018 78.406966 64.518492 64.518492 
C 78.406966 50.630018 94.896118 39.612318 113.042284 32.09593 
C 131.18845 24.579542 150.638732 20.71064 170.28 20.71064 
" clip-path="url(#pc3dddab164)" style="fill: none; stroke: #808080; stroke-opacity: 0.2; stroke-linecap: square"/>
     </g>
    </g>
   </g>
   <g id="patch_27">
    <path d="M 170.28 7.2 
C 148.864531 7.2 127.6573 11.418381 107.871986 19.613726 
C 88.086672 27.809071 70.10805 39.822003 54.965026 54.965026 
C 39.822003 70.10805 27.809071 88.086672 19.613726 107.871986 
C 11.418381 127.6573 7.2 148.864531 7.2 170.28 
C 7.2 191.695469 11.418381 212.9027 19.613726 232.688014 
C 27.809071 252.473328 39.822003 270.45195 54.965026 285.594974 
C 70.10805 300.737997 88.086672 312.750929 107.871986 320.946274 
C 127.6573 329.141619 148.864531 333.36 170.28 333.36 
C 191.695469 333.36 212.9027 329.141619 232.688014 320.946274 
C 252.473328 312.750929 270.45195 300.737997 285.594974 285.594974 
C 300.737997 270.45195 312.750929 252.473328 320.946274 232.688014 
C 329.141619 212.9027 333.36 191.695469 333.36 170.28 
C 333.36 148.864531 329.141619 127.6573 320.946274 107.871986 
C 312.750929 88.086672 300.737997 70.10805 285.594974 54.965026 
C 270.45195 39.822003 252.473328 27.809071 232.688014 19.613726 
C 212.9027 11.418381 191.695469 7.2 170.28 7.2 
" style="fill: none; stroke: #000000; stroke-width: 0.8; stroke-linejoin: miter; stroke-linecap: square"/>
   </g>
  </g>
 </g>
 <defs>
  <clipPath id="pc3dddab164">
   <path d="M 333.36 170.28 
C 333.36 148.864531 329.141619 127.6573 320.946274 107.871986 
C 312.750929 88.086672 300.737997 70.10805 285.594974 54.965026 
C 270.45195 39.822003 252.473328 27.809071 232.688014 19.613726 
C 212.9027 11.418381 191.695469 7.2 170.28 7.2 
C 148.864531 7.2 127.6573 11.418381 107.871986 19.613726 
C 88.086672 27.809071 70.10805 39.822003 54.965026 54.965026 
C 39.822003 70.10805 27.809071 88.086672 19.613726 107.871986 
C 11.418381 127.6573 7.2 148.864531 7.2 170.28 
C 7.2 191.695469 11.418381 212.9027 19.613726 232.688014 
C 27.809071 252.473328 39.822003 270.45195 54.965026 285.594974 
C 70.10805 300.737997 88.086672 312.750929 107.871986 320.946274 
C 127.6573 329.141619 148.864531 333.36 170.28 333.36 
C 191.695469 333.36 212.9027 329.141619 232.688014 320.946274 
C 252.473328 312.750929 270.45195 300.737997 285.594974 285.594974 
C 300.737997 270.45195 312.750929 252.473328 320.946274 232.688014 
C 329.141619 212.9027 333.36 191.695469 333.36 170.28 
M 170.28 170.28 
C 170.28 170.28 170.28 170.28 170.28 170.28 
C 170.28 170.28 170.28 170.28 170.28 170.28 
C 170.28 170.28 170.28 170.28 170.28 170.28 
C 170.28 170.28 170.28 170.28 170.28 170.28 
C 170.28 170.28 170.28 170.28 170.28 170.28 
C 170.28 170.28 170.28 170.28 170.28 170.28 
C 170.28 170.28 170.28 170.28 170.28 170.28 
C 170.28 170.28 170.28 170.28 170.28 170.28 
C 170.28 170.28 170.28 170.28 170.28 170.28 
C 170.28 170.28 170.28 170.28 170.28 170.28 
C 170.28 170.28 170.28 170.28 170.28 170.28 
C 170.28 170.28 170.28 170.28 170.28 170.28 
C 170.28 170.28 170.28 170.28 170.28 170.28 
C 170.28 170.28 170.28 170.28 170.28 170.28 
C 170.28 170.28 170.28 170.28 170.28 170.28 
C 170.28 170.28 170.28 170.28 170.28 170.28 
M 333.36 170.28 
z
"/>
  </clipPath>
 </defs>
</svg>
