<?xml version="1.0" encoding="utf-8" standalone="no"?>
<!DOCTYPE svg PUBLIC "-//W3C//DTD SVG 1.1//EN"
  "http://www.w3.org/Graphics/SVG/1.1/DTD/svg11.dtd">
<svg xmlns:xlink="http://www.w3.org/1999/xlink" width="558pt" height="558pt" viewBox="0 0 558 558" xmlns="http://www.w3.org/2000/svg" version="1.1">
 <metadata>
  <rdf:RDF xmlns:dc="http://purl.org/dc/elements/1.1/" xmlns:cc="http://creativecommons.org/ns#" xmlns:rdf="http://www.w3.org/1999/02/22-rdf-syntax-ns#">
   <cc:Work>
    <dc:type rdf:resource="http://purl.org/dc/dcmitype/StillImage"/>
    <dc:date>2026-03-02T13:40:17.587649</dc:date>
    <dc:format>image/svg+xml</dc:format>
    <dc:creator>
     <cc:Agent>
      <dc:title>Matplotlib v3.5.3, https://matplotlib.org/</dc:title>
     </cc:Agent>
    </dc:creator>
   </cc:Work>
  </rdf:RDF>
 </metadata>
 <defs>
  <style type="text/css">*{stroke-linejoin: round; stroke-linecap: butt}</style>
 </defs>
 <g id="figure_1">
  <g id="patch_1">
   <path d="M 0 558 
L 558 558 
L 558 0 
L 0 0 
L 0 558 
z
" style="fill: none"/>
  </g>
  <g id="axes_1">
   <g id="patch_2">
    <path d="M 124.257376 126.242434 
C 106.738718 143.988744 92.402698 164.617154 81.877539 187.223701 
C 71.35238 209.830248 64.794104 234.079821 62.490101 258.909773 
C 60.186098 283.739724 62.170523 308.781985 68.356416 332.939172 
C 74.542309 357.096358 84.837972 380.010373 98.792237 400.677096 
C 112.746501 421.343819 130.152515 439.456893 150.247523 454.222582 
C 170.342532 468.988271 192.828654 480.187693 216.720521 487.330075 
C 240.612388 494.472457 265.555835 497.451924 290.457809 496.137911 
C 315.359783 494.823897 339.851146 489.235883 362.858656 479.618741 
C 385.866166 470.0016 407.048768 456.497891 425.478214 439.699366 
C 443.90766 422.900841 459.310759 403.056514 471.012527 381.035988 
C 482.714296 359.015463 490.541271 335.145163 494.150465 310.471114 
C 497.759659 285.797066 497.097571 260.685029 492.193214 236.235444 
C 487.288857 211.785859 478.214931 188.361157 465.369068 166.987839 
C 452.523205 145.614521 436.095826 126.609416 416.806801 110.805353 
C 397.517775 95.001289 375.653036 82.63254 352.170723 74.24112 
C 328.688411 65.8497 303.936618 61.56 279 61.56 
L 279 279 
L 124.257376 126.242434 
z
" style="fill: #008000"/>
   </g>
   <g id="patch_3">
    <path d="M 278.99998 61.56 
C 250.209821 61.560003 221.704273 67.27795 195.141335 78.381263 
C 168.578396 89.484575 144.483253 105.753726 124.257376 126.242434 
L 279 279 
L 278.99998 61.56 
L 278.99998 61.56 
z
" style="fill: none; opacity: 0"/>
   </g>
   <g id="patch_4">
    <path d="M 279 442.08 
C 322.249322 442.08 363.733085 424.896862 394.314974 394.314974 
C 424.896862 363.733085 442.08 322.249322 442.08 279 
C 442.08 235.750678 424.896862 194.266915 394.314974 163.685026 
C 363.733085 133.103138 322.249322 115.92 279 115.92 
C 235.750678 115.92 194.266915 133.103138 163.685026 163.685026 
C 133.103138 194.266915 115.92 235.750678 115.92 279 
C 115.92 322.249322 133.103138 363.733085 163.685026 394.314974 
C 194.266915 424.896862 235.750678 442.08 279 442.08 
z
" clip-path="url(#p7d7f0b2af1)" style="fill: #1e1e1e"/>
   </g>
   <g id="matplotlib.axis_1"/>
   <g id="matplotlib.axis_2"/>
   <g id="text_1">
    <!-- 87% -->
    <g style="fill: #ffffff" transform="translate(159.320312 306.59375)scale(1 -1)">
     <defs>
      <path id="DejaVuSans-Bold-38" d="M 2228 2088 
Q 1891 2088 1709 1903 
Q 1528 1719 1528 1375 
Q 1528 1031 1709 848 
Q 1891 666 2228 666 
Q 2563 666 2741 848 
Q 2919 1031 2919 1375 
Q 2919 1722 2741 1905 
Q 2563 2088 2228 2088 
z
M 1350 2484 
Q 925 2613 709 2878 
Q 494 3144 494 3541 
Q 494 4131 934 4440 
Q 1375 4750 2228 4750 
Q 3075 4750 3515 4442 
Q 3956 4134 3956 3541 
Q 3956 3144 3739 2878 
Q 3522 2613 3097 2484 
Q 3572 2353 3814 2058 
Q 4056 1763 4056 1313 
Q 4056 619 3595 264 
Q 3134 -91 2228 -91 
Q 1319 -91 855 264 
Q 391 619 391 1313 
Q 391 1763 633 2058 
Q 875 2353 1350 2484 
z
M 1631 3419 
Q 1631 3141 1786 2991 
Q 1941 2841 2228 2841 
Q 2509 2841 2662 2991 
Q 2816 3141 2816 3419 
Q 2816 3697 2662 3845 
Q 2509 3994 2228 3994 
Q 1941 3994 1786 3844 
Q 1631 3694 1631 3419 
z
" transform="scale(0.015625)"/>
      <path id="DejaVuSans-Bold-37" d="M 428 4666 
L 3944 4666 
L 3944 3988 
L 2125 0 
L 953 0 
L 2675 3781 
L 428 3781 
L 428 4666 
z
" transform="scale(0.015625)"/>
      <path id="DejaVuSans-Bold-25" d="M 4959 1925 
Q 4738 1925 4616 1733 
Q 4494 1541 4494 1184 
Q 4494 825 4614 633 
Q 4734 441 4959 441 
Q 5184 441 5303 633 
Q 5422 825 5422 1184 
Q 5422 1541 5301 1733 
Q 5181 1925 4959 1925 
z
M 4959 2450 
Q 5541 2450 5875 2112 
Q 6209 1775 6209 1184 
Q 6209 594 5875 251 
Q 5541 -91 4959 -91 
Q 4378 -91 4042 251 
Q 3706 594 3706 1184 
Q 3706 1772 4042 2111 
Q 4378 2450 4959 2450 
z
M 2094 -91 
L 1403 -91 
L 4319 4750 
L 5013 4750 
L 2094 -91 
z
M 1453 4750 
Q 2034 4750 2367 4411 
Q 2700 4072 2700 3481 
Q 2700 2891 2367 2550 
Q 2034 2209 1453 2209 
Q 872 2209 539 2550 
Q 206 2891 206 3481 
Q 206 4072 539 4411 
Q 872 4750 1453 4750 
z
M 1453 4225 
Q 1228 4225 1106 4031 
Q 984 3838 984 3481 
Q 984 3122 1106 2926 
Q 1228 2731 1453 2731 
Q 1678 2731 1798 2926 
Q 1919 3122 1919 3481 
Q 1919 3838 1797 4031 
Q 1675 4225 1453 4225 
z
" transform="scale(0.015625)"/>
     </defs>
     <use xlink:href="#DejaVuSans-Bold-38"/>
     <use xlink:href="#DejaVuSans-Bold-37" x="69.580078"/>
     <use xlink:href="#DejaVuSans-Bold-25" x="139.160156"/>
    </g>
   </g>
  </g>
 </g>
 <defs>
  <clipPath id="p7d7f0b2af1">
   <rect x="7.2" y="7.2" width="543.6" height="543.6"/>
  </clipPath>
 </defs>
</svg>
