<?xml version="1.0" encoding="utf-8" standalone="no"?>
<!DOCTYPE svg PUBLIC "-//W3C//DTD SVG 1.1//EN"
  "http://www.w3.org/Graphics/SVG/1.1/DTD/svg11.dtd">
<svg xmlns:xlink="http://www.w3.org/1999/xlink" width="231.84pt" height="231.84pt" viewBox="0 0 231.84 231.84" xmlns="http://www.w3.org/2000/svg" version="1.1">
 <metadata>
  <rdf:RDF xmlns:dc="http://purl.org/dc/elements/1.1/" xmlns:cc="http://creativecommons.org/ns#" xmlns:rdf="http://www.w3.org/1999/02/22-rdf-syntax-ns#">
   <cc:Work>
    <dc:type rdf:resource="http://purl.org/dc/dcmitype/StillImage"/>
    <dc:date>2026-03-15T18:14:45.814708</dc:date>
    <dc:format>image/svg+xml</dc:format>
    <dc:creator>
     <cc:Agent>
      <dc:title>Matplotlib v3.5.3, https://matplotlib.org/</dc:title>
     </cc:Agent>
    </dc:creator>
   </cc:Work>
  </rdf:RDF>
 </metadata>
 <defs>
  <style type="text/css">*{stroke-linejoin: round; stroke-linecap: butt}</style>
 </defs>
 <g id="figure_1">
  <g id="patch_1">
   <path d="M 0 231.84 
L 231.84 231.84 
L 231.84 0 
L 0 0 
L 0 231.84 
z
" style="fill: none"/>
  </g>
  <g id="axes_1">
   <g id="patch_2">
    <path d="M 115.92 28.944 
C 105.469385 28.944 95.103812 30.827543 85.321276 34.504137 
C 75.53874 38.180732 66.498453 43.590541 58.634738 50.473661 
L 115.92 115.92 
L 115.92 28.944 
z
" style="fill: #ffbbee"/>
   </g>
   <g id="patch_3">
    <path d="M 58.634738 50.473661 
C 53.599275 54.881208 49.089271 59.855211 45.19431 65.296869 
C 41.29935 70.738527 38.045395 76.611569 35.49708 82.799335 
L 115.92 115.92 
L 58.634738 50.473661 
z
" style="fill: #ffff88"/>
   </g>
   <g id="patch_4">
    <path d="M 35.49708 82.799335 
C 33.213582 88.344076 31.509616 94.110135 30.41239 100.005439 
C 29.315164 105.900743 28.83055 111.893745 28.966285 117.888751 
L 115.92 115.92 
L 35.49708 82.799335 
z
" style="fill: #bbcc99"/>
   </g>
   <g id="patch_5">
    <path d="M 28.966285 117.888751 
C 29.071128 122.519346 29.545697 127.134176 30.385463 131.689194 
C 31.225228 136.244213 32.42751 140.724881 33.980833 145.088433 
L 115.92 115.92 
L 28.966285 117.888751 
z
" style="fill: #ff7777"/>
   </g>
   <g id="patch_6">
    <path d="M 33.980833 145.088433 
C 35.495062 149.342163 37.338231 153.471528 39.493622 157.439071 
C 41.649012 161.406614 44.110086 165.200299 46.854517 168.785714 
L 115.92 115.92 
L 33.980833 145.088433 
z
" style="fill: #44aa66"/>
   </g>
   <g id="patch_7">
    <path d="M 46.854517 168.785714 
C 49.585202 172.353169 52.588193 175.703694 55.836519 178.8072 
C 59.084846 181.910705 62.568755 184.757872 66.256957 187.323128 
L 115.92 115.92 
L 46.854517 168.785714 
z
" style="fill: #ffcc77"/>
   </g>
   <g id="patch_8">
    <path d="M 66.256957 187.323128 
C 69.66692 189.694861 73.242405 191.819278 76.955954 193.680065 
C 80.669502 195.540851 84.511581 197.13323 88.452685 198.444973 
L 115.92 115.92 
L 66.256957 187.323128 
z
" style="fill: #77bbee"/>
   </g>
   <g id="patch_9">
    <path d="M 88.452685 198.444973 
C 91.832229 199.569808 95.277681 200.485985 98.76957 201.188325 
C 102.26146 201.890666 105.793197 202.377845 109.344827 202.64711 
L 115.92 115.92 
L 88.452685 198.444973 
z
" style="fill: #6677ff"/>
   </g>
   <g id="patch_10">
    <path d="M 109.344827 202.64711 
C 112.760684 202.906082 116.18886 202.963021 119.611434 202.817629 
C 123.034008 202.672237 126.445005 202.324768 129.826593 201.77704 
L 115.92 115.92 
L 109.344827 202.64711 
z
" style="fill: #66bbbb"/>
   </g>
   <g id="patch_11">
    <path d="M 129.826593 201.77704 
C 132.965711 201.268585 136.074583 200.588353 139.139201 199.739409 
C 142.203818 198.890465 145.219572 197.874086 148.172875 196.694852 
L 115.92 115.92 
L 129.826593 201.77704 
z
" style="fill: #888866"/>
   </g>
   <g id="patch_12">
    <path d="M 148.172875 196.694852 
C 166.945072 189.199235 182.529565 175.389068 192.228793 157.65479 
C 201.928021 139.920512 205.148096 119.347999 201.331646 99.498204 
C 197.515196 79.648409 186.895904 61.736743 171.311892 48.863584 
C 155.72788 35.990425 136.133363 28.944002 115.92001 28.944 
L 115.92 115.92 
L 148.172875 196.694852 
z
"/>
   </g>
   <g id="matplotlib.axis_1"/>
   <g id="matplotlib.axis_2"/>
  </g>
 </g>
</svg>
